<svg width="18" height="18" viewBox="0 0 18 18" fill="none" xmlns="http://www.w3.org/2000/svg">
<path d="M12.375 18H5.625C2.51888 18 0 15.4811 0 12.375V5.625C0 2.51888 2.51888 0 5.625 0H12.375C15.4811 0 18 2.51888 18 5.625V12.375C18 15.4811 15.4811 18 12.375 18ZM16.3125 5.625C16.3125 3.45375 14.5462 1.6875 12.375 1.6875H5.625C3.45375 1.6875 1.6875 3.45375 1.6875 5.625V12.375C1.6875 14.5462 3.45375 16.3125 5.625 16.3125H12.375C14.5462 16.3125 16.3125 14.5462 16.3125 12.375V5.625Z" fill="black"/>
<path d="M9 13.5C6.51487 13.5 4.5 11.4851 4.5 9C4.5 6.51487 6.51487 4.5 9 4.5C11.4851 4.5 13.5 6.51487 13.5 9C13.5 11.4851 11.4851 13.5 9 13.5ZM9 6.1875C7.44975 6.1875 6.1875 7.44975 6.1875 9C6.1875 10.5514 7.44975 11.8125 9 11.8125C10.5503 11.8125 11.8125 10.5514 11.8125 9C11.8125 7.44975 10.5503 6.1875 9 6.1875Z" fill="black"/>
<path d="M13.8375 13.2379C14.1687 13.2379 14.4371 13.5063 14.4371 13.8375C14.4371 14.1687 14.1687 14.4371 13.8375 14.4371C13.5063 14.4371 13.2379 14.1687 13.2379 13.8375C13.2379 13.5063 13.5063 13.2379 13.8375 13.2379Z" fill="black"/>
</svg>
