<svg width="20" height="11" viewBox="0 0 20 11" fill="none" xmlns="http://www.w3.org/2000/svg">
<path d="M19.8939 9.93421C19.8697 9.8839 19.8471 9.84216 19.8262 9.80873C19.4792 9.20627 18.8161 8.46681 17.8372 7.59011L17.8166 7.57004L17.8062 7.56019L17.7957 7.5501H17.7852C17.341 7.14187 17.0597 6.86738 16.9419 6.72685C16.7263 6.45915 16.678 6.18818 16.7959 5.91362C16.8791 5.70618 17.1917 5.2681 17.733 4.59877C18.0178 4.24405 18.2433 3.95975 18.4098 3.74556C19.6109 2.20629 20.1316 1.22268 19.9719 0.794338L19.9098 0.69424C19.8681 0.633977 19.7606 0.578847 19.5872 0.52857C19.4134 0.478397 19.1914 0.4701 18.9206 0.503537L15.9216 0.523507C15.8731 0.506912 15.8037 0.508458 15.7133 0.52857C15.623 0.548681 15.5779 0.558772 15.5779 0.558772L15.5257 0.58391L15.4843 0.614112C15.4495 0.634082 15.4114 0.669207 15.3697 0.719414C15.3282 0.769445 15.2935 0.828161 15.2658 0.895069C14.9393 1.70482 14.5681 2.45768 14.1515 3.15362C13.8946 3.56861 13.6587 3.92825 13.4432 4.23276C13.2281 4.53717 13.0476 4.76145 12.9019 4.90522C12.756 5.04912 12.6244 5.16441 12.5061 5.2515C12.388 5.33862 12.2979 5.37544 12.2355 5.36197C12.173 5.3485 12.1141 5.33514 12.0583 5.32178C11.9612 5.26152 11.883 5.17956 11.8241 5.07584C11.765 4.97213 11.7252 4.84158 11.7043 4.68431C11.6836 4.52694 11.6714 4.39158 11.6679 4.27777C11.6646 4.1641 11.6661 4.00331 11.6732 3.79588C11.6804 3.58833 11.6836 3.44791 11.6836 3.37428C11.6836 3.11994 11.6888 2.84391 11.6991 2.54611C11.7096 2.24831 11.7181 2.01236 11.7252 1.83853C11.7323 1.66453 11.7356 1.48043 11.7356 1.28636C11.7356 1.09228 11.7233 0.940072 11.6991 0.829602C11.6752 0.719273 11.6384 0.612178 11.59 0.508353C11.5413 0.404634 11.4701 0.3244 11.3766 0.267443C11.2829 0.210555 11.1664 0.165411 11.0277 0.131869C10.6598 0.0516004 10.1912 0.00817886 9.62183 0.0014283C8.33067 -0.0119322 7.50103 0.0684415 7.1331 0.242444C6.98732 0.315962 6.8554 0.416412 6.73745 0.543477C6.61245 0.690759 6.59502 0.771133 6.68525 0.784353C7.10184 0.84451 7.39676 0.988416 7.57033 1.21593L7.63288 1.33649C7.68153 1.42348 7.73012 1.57747 7.77873 1.79827C7.82728 2.01907 7.85861 2.26332 7.87239 2.53088C7.90704 3.01949 7.90704 3.43774 7.87239 3.78568C7.83764 4.13376 7.80481 4.40473 7.77348 4.59881C7.74215 4.79288 7.69532 4.95015 7.63288 5.07057C7.57033 5.19103 7.52872 5.26465 7.50785 5.29137C7.48703 5.31809 7.46967 5.33493 7.45588 5.34154C7.36565 5.37487 7.2718 5.39186 7.17468 5.39186C7.0774 5.39186 6.95945 5.34495 6.82064 5.25122C6.68186 5.15748 6.53783 5.02873 6.38855 4.86475C6.23927 4.70073 6.07091 4.47153 5.88341 4.17711C5.69605 3.88268 5.50165 3.53471 5.30032 3.1332L5.13375 2.84201C5.02962 2.65468 4.88738 2.38191 4.70688 2.02396C4.52627 1.66586 4.36663 1.31947 4.22785 0.984865C4.17237 0.844334 4.08904 0.737345 3.97798 0.663722L3.92586 0.63352C3.89121 0.606799 3.83559 0.578425 3.75929 0.548188C3.68288 0.517987 3.60315 0.496328 3.51977 0.483003L0.66657 0.502974C0.37501 0.502974 0.177183 0.566647 0.0730178 0.693817L0.0313298 0.753975C0.0105041 0.787481 0 0.840994 0 0.914652C0 0.988276 0.0208258 1.07863 0.0625138 1.18562C0.479029 2.1293 0.93198 3.03939 1.42137 3.91605C1.91075 4.79271 2.33602 5.49888 2.69692 6.03393C3.05789 6.56937 3.42582 7.07471 3.80072 7.54971C4.17562 8.02489 4.42378 8.3294 4.5452 8.46318C4.66676 8.59721 4.76224 8.69741 4.83165 8.76432L5.09203 9.0052C5.25863 9.16584 5.50329 9.35823 5.82611 9.58237C6.149 9.80665 6.50646 10.0274 6.89869 10.2451C7.29099 10.4624 7.74737 10.6398 8.26808 10.7769C8.78873 10.9142 9.29548 10.9693 9.7884 10.9427H10.9859C11.2288 10.9225 11.4128 10.8489 11.5379 10.7218L11.5793 10.6715C11.6072 10.6316 11.6333 10.5695 11.6573 10.486C11.6817 10.4024 11.6938 10.3102 11.6938 10.21C11.6867 9.92229 11.7094 9.66299 11.7613 9.43214C11.8132 9.20135 11.8724 9.02735 11.9386 8.91016C12.0047 8.79308 12.0793 8.69429 12.1624 8.61419C12.2456 8.53392 12.3049 8.4853 12.3397 8.46856C12.3743 8.45172 12.4019 8.4403 12.4227 8.43344C12.5893 8.37993 12.7854 8.43175 13.0112 8.58916C13.2369 8.74643 13.4485 8.94061 13.6465 9.17139C13.8444 9.40239 14.0821 9.66155 14.3597 9.94926C14.6375 10.2371 14.8804 10.451 15.0886 10.5918L15.2968 10.7122C15.4358 10.7926 15.6163 10.8662 15.8385 10.9331C16.0603 11 16.2546 11.0167 16.4215 10.9833L19.0872 10.9432C19.3508 10.9432 19.556 10.9011 19.7015 10.8176C19.8473 10.734 19.9339 10.6418 19.9619 10.5416C19.9897 10.4412 19.9912 10.3274 19.9672 10.2001C19.9425 10.0732 19.9181 9.98438 19.8939 9.93421Z" fill="black"/>
</svg>
